<?xml version="1.0" standalone="no"?>
<!DOCTYPE svg PUBLIC "-//W3C//DTD SVG 20010904//EN"
 "http://www.w3.org/TR/2001/REC-SVG-20010904/DTD/svg10.dtd">
<svg version="1.0" xmlns="http://www.w3.org/2000/svg"
 width="640.000000pt" height="640.000000pt" viewBox="0 0 640.000000 640.000000"
 preserveAspectRatio="xMidYMid meet">

<g transform="translate(0.000000,640.000000) scale(0.100000,-0.100000)"
fill="blue" stroke="none">
<path d="M3595 5579 c-110 -57 -258 -141 -535 -307 -151 -91 -288 -173 -305
-182 -42 -24 -101 -60 -298 -181 -94 -59 -183 -110 -197 -114 -24 -6 14 20
340 234 80 52 147 97 150 101 3 3 28 22 55 40 63 42 76 59 72 90 -4 41 -44 38
-134 -12 -109 -60 -102 -56 -219 -128 -58 -36 -119 -73 -135 -82 -16 -10 -41
-26 -56 -35 -20 -13 -25 -14 -21 -3 2 7 35 35 74 62 38 26 76 54 84 60 8 7 48
37 88 67 86 64 105 87 91 113 -19 35 -82 15 -218 -68 -27 -16 -42 -21 -39 -13
2 8 19 23 37 34 52 33 265 191 280 208 15 19 7 53 -15 61 -14 5 -93 -27 -134
-54 -29 -19 -456 -273 -483 -287 -15 -8 -31 -22 -36 -32 -11 -20 2 -47 18 -37
7 4 9 1 5 -8 -3 -8 -40 -38 -82 -65 -218 -141 -611 -413 -652 -451 -26 -25
-30 -32 -20 -50 6 -12 21 -20 36 -20 25 0 161 70 274 141 14 9 70 42 125 74
55 32 119 71 142 87 44 30 53 33 53 20 0 -5 -25 -26 -55 -46 -30 -21 -52 -43
-48 -49 3 -6 1 -7 -6 -3 -13 8 -120 -68 -206 -146 -50 -46 -50 -46 -31 -67 11
-12 26 -21 33 -21 29 0 5 -21 -122 -104 -314 -206 -368 -255 -314 -289 27 -17
80 1 199 68 63 36 119 65 124 65 19 0 -20 -32 -82 -66 -73 -41 -304 -195 -339
-227 -25 -23 -29 -47 -11 -65 18 -18 39 -15 102 13 31 14 62 25 68 25 15 0 -2
-13 -132 -99 -111 -74 -170 -124 -170 -144 1 -28 18 -40 51 -35 30 5 157 69
294 148 24 14 74 43 112 64 37 22 87 52 110 68 23 15 46 28 52 28 5 0 15 8 20
18 6 9 11 13 11 8 0 -4 11 -1 25 8 52 34 117 67 122 62 3 -3 -31 -28 -76 -56
-44 -29 -78 -56 -75 -61 3 -5 -1 -6 -8 -4 -8 3 -36 -9 -63 -26 -45 -29 -79
-51 -200 -128 -75 -48 -146 -104 -156 -123 -12 -23 13 -58 40 -58 9 0 65 25
125 55 60 30 112 53 114 50 6 -6 12 -1 -68 -57 -86 -61 -112 -90 -108 -120 5
-37 52 -35 131 7 38 19 73 35 78 35 18 0 8 -17 -18 -31 -48 -24 -196 -126
-242 -166 -38 -34 -43 -43 -37 -66 10 -41 51 -35 169 26 186 96 176 80 -33
-55 -165 -107 -191 -135 -155 -172 18 -17 43 -12 128 29 62 29 91 27 38 -2
-37 -20 -268 -171 -291 -190 -67 -53 -80 -67 -80 -83 0 -33 26 -44 73 -30 49
14 240 109 312 154 57 36 106 59 112 53 2 -3 -35 -31 -83 -63 -48 -33 -94 -69
-102 -81 -12 -19 -11 -24 8 -43 12 -12 28 -19 37 -16 65 25 87 11 28 -17 -19
-9 -69 -39 -111 -67 -41 -27 -77 -50 -79 -50 -5 0 -172 -110 -263 -172 -34
-24 -69 -54 -78 -66 -14 -22 -14 -25 2 -43 9 -10 27 -19 39 -19 23 0 275 124
376 185 33 21 63 34 66 31 7 -7 -19 -28 -77 -62 -19 -11 -34 -26 -33 -32 2 -6
-3 -9 -10 -6 -14 5 -57 -39 -57 -59 0 -37 45 -47 103 -22 74 31 66 10 -19 -50
-88 -62 -111 -93 -94 -125 16 -29 51 -25 131 16 79 39 128 44 58 5 -57 -31
-177 -118 -211 -153 -48 -48 -9 -88 60 -64 49 17 151 69 217 111 28 17 58 34
68 38 11 4 15 12 11 18 -4 8 -3 9 5 5 6 -4 27 2 46 14 19 12 40 20 47 18 6 -2
-47 -40 -118 -85 -71 -44 -128 -86 -126 -93 1 -6 -2 -9 -8 -5 -12 7 -98 -59
-107 -82 -3 -7 3 -23 13 -34 14 -15 25 -18 48 -13 46 10 360 168 428 215 14
11 29 19 33 19 3 0 30 16 60 35 55 35 85 35 37 -1 -45 -33 -63 -54 -56 -66 5
-7 3 -8 -5 -3 -9 5 -12 0 -9 -16 2 -16 9 -24 20 -23 10 1 16 -2 13 -6 -3 -5 2
-10 12 -12 15 -3 -71 -60 -322 -214 -44 -27 -84 -52 -90 -57 -5 -4 -44 -30
-86 -57 -42 -27 -98 -69 -124 -93 -38 -34 -46 -47 -41 -64 17 -53 60 -42 275
69 148 76 198 95 129 48 -54 -37 -98 -83 -98 -101 0 -25 26 -42 55 -35 27 7
183 81 225 107 14 9 75 44 135 79 61 34 137 79 170 98 33 19 84 48 113 64 30
17 49 34 46 40 -4 7 -2 8 4 4 6 -4 43 13 82 36 38 24 78 48 88 53 9 6 57 34
105 64 49 29 91 51 94 48 5 -6 -78 -62 -201 -137 -142 -86 -294 -190 -323
-222 -31 -32 -32 -35 -17 -56 21 -30 56 -23 177 38 96 49 130 53 62 7 -19 -13
-32 -27 -28 -31 4 -4 0 -4 -10 0 -11 4 -17 1 -17 -7 0 -7 -3 -9 -6 -6 -15 14
-164 -107 -164 -133 0 -45 46 -51 114 -15 37 19 46 21 46 9 0 -8 -8 -18 -17
-21 -56 -22 -223 -157 -223 -181 0 -5 9 -17 20 -27 17 -15 26 -17 55 -8 18 6
36 8 39 6 3 -3 -59 -48 -137 -100 -130 -86 -227 -165 -227 -185 0 -4 11 -14
23 -23 22 -14 28 -13 78 7 30 12 59 25 65 30 6 4 37 22 70 39 65 35 248 141
389 225 50 30 99 60 110 66 11 7 32 20 46 30 28 18 46 14 26 -6 -7 -7 -51 -37
-99 -69 -104 -67 -178 -133 -178 -158 0 -27 26 -48 52 -42 76 18 392 189 381
206 -4 6 -1 7 6 2 8 -4 24 1 40 12 14 11 37 24 51 28 22 7 23 6 9 -8 -9 -8
-42 -32 -75 -53 -32 -20 -61 -40 -64 -43 -3 -3 -24 -19 -47 -35 -23 -15 -45
-37 -49 -48 -8 -26 13 -48 46 -48 39 0 300 135 456 236 56 37 104 58 104 46 0
-4 -46 -36 -101 -72 -170 -109 -214 -157 -174 -190 20 -17 76 5 214 83 196
111 212 119 218 113 3 -3 -22 -22 -56 -43 -149 -91 -359 -232 -394 -265 -41
-39 -41 -64 -1 -74 25 -6 160 57 287 135 37 22 69 41 72 41 3 0 80 46 172 102
215 130 300 178 313 178 5 0 10 5 10 11 0 5 5 7 11 3 12 -7 -5 -19 -136 -100
-326 -201 -457 -290 -476 -327 -9 -15 -7 -24 9 -40 21 -20 21 -20 69 -1 26 10
51 21 55 22 5 2 8 0 8 -5 0 -5 -17 -19 -37 -31 -66 -37 -241 -167 -262 -194
-45 -56 9 -84 85 -45 74 38 408 231 606 352 98 59 182 105 188 103 6 -2 -15
-20 -47 -40 -32 -21 -63 -41 -68 -45 -6 -5 -55 -38 -110 -75 -139 -93 -249
-181 -253 -200 -5 -24 26 -50 52 -42 18 5 153 77 196 104 43 27 189 113 250
147 14 8 44 26 66 41 23 15 64 40 90 56 27 16 72 44 99 61 95 60 398 238 464
272 79 41 89 55 61 83 -19 19 -22 19 -58 5 -20 -9 -53 -27 -73 -40 -19 -14
-41 -25 -49 -25 -20 0 15 36 59 58 75 40 288 200 296 223 10 30 -5 48 -43 51
l-37 3 65 39 c65 40 222 137 293 182 20 13 54 35 75 48 198 124 318 211 333
238 9 16 7 24 -8 39 -18 18 -22 18 -59 5 -21 -7 -70 -32 -109 -55 -38 -23 -74
-41 -80 -41 -13 1 41 45 87 72 20 12 34 26 31 31 -3 6 -1 7 5 3 13 -8 201 119
245 164 32 34 33 41 8 64 -20 18 -26 17 -119 -25 -56 -25 -345 -189 -352 -200
-7 -10 -62 -31 -67 -25 -4 4 17 19 160 114 48 32 106 75 128 96 37 36 39 40
26 60 -14 20 -38 24 -77 14 -26 -7 -149 -68 -200 -100 -85 -53 -76 -24 10 32
46 30 88 59 94 65 6 6 24 18 39 28 54 35 58 97 6 97 -34 0 -222 -103 -514
-280 -44 -27 -84 -49 -89 -50 -20 -1 23 34 100 81 50 30 82 55 78 61 -4 7 -2
8 4 4 11 -6 114 50 120 66 2 4 8 8 14 8 12 0 194 125 231 158 50 47 22 93 -45
71 -40 -14 -149 -67 -198 -97 -37 -23 -50 -27 -50 -14 0 4 19 18 42 32 188
114 328 215 328 235 0 52 -35 57 -124 18 -49 -22 -240 -128 -318 -177 -9 -5
-20 -7 -24 -3 -9 9 -20 2 138 101 76 48 147 99 158 113 18 23 19 28 6 47 -17
26 -49 25 -107 -3 -48 -24 -59 -26 -59 -11 0 6 12 16 28 22 15 7 55 31 89 55
34 24 64 43 67 43 10 0 159 112 179 133 19 22 20 28 11 51 -15 39 -119 5 -287
-91 -75 -44 -104 -50 -77 -18 7 8 17 15 22 15 12 0 128 78 151 101 20 21 22
50 5 67 -17 17 -32 15 -83 -9 -77 -36 -70 -16 12 36 164 104 253 178 253 211
0 43 -54 42 -143 -3 -55 -28 -87 -26 -42 2 17 11 52 40 78 66 43 42 47 50 37
69 -18 33 -33 34 -102 5 -34 -15 -72 -29 -83 -33 -18 -5 -18 -4 -5 9 8 8 34
27 58 42 66 43 122 97 122 119 0 32 -26 50 -60 43 -16 -4 -32 -11 -35 -16 -10
-15 -35 -10 -29 6 4 8 10 15 15 15 5 0 42 22 84 49 209 137 256 187 206 218
-16 10 -28 9 -62 -2 -52 -19 -388 -197 -424 -225 -5 -4 -32 -20 -60 -35 -27
-16 -77 -45 -110 -66 -65 -41 -87 -42 -40 -1 17 14 29 29 28 33 -2 5 3 6 11 3
16 -6 106 77 106 97 0 22 -21 39 -49 39 -13 0 -55 -14 -93 -32 -37 -17 -72
-28 -76 -23 -4 4 -1 10 6 12 32 12 112 86 118 110 8 29 -19 58 -44 48 -30 -11
-33 9 -4 24 53 27 421 258 432 270 3 4 25 19 50 35 117 76 151 121 118 154
-18 18 -30 15 -103 -18 -36 -16 -67 -30 -70 -30 -2 0 -28 -14 -57 -31 -29 -17
-82 -47 -118 -67 -36 -19 -83 -47 -105 -61 -22 -14 -51 -31 -65 -38 -14 -7
-43 -24 -65 -38 -22 -13 -50 -29 -63 -35 -14 -6 -20 -15 -16 -22 4 -7 3 -8 -5
-4 -7 5 -28 -3 -49 -16 -102 -68 -113 -54 -14 17 79 58 122 99 122 119 0 27
-28 45 -58 37 -30 -9 -140 -64 -219 -111 -29 -17 -53 -27 -53 -22 0 12 34 42
48 42 7 0 12 5 12 10 0 6 4 10 10 10 13 0 164 99 228 149 52 41 63 66 40 89
-20 20 -51 14 -137 -29 -46 -22 -85 -39 -87 -36 -3 3 13 18 36 33 122 84 200
145 210 165 10 18 9 25 -8 42 -20 20 -22 20 -69 2 -50 -18 -244 -119 -300
-155 -17 -12 -34 -17 -37 -11 -3 5 16 23 44 41 47 30 110 92 110 108 -1 15
-28 42 -43 42 -9 0 -42 -11 -73 -25 -55 -24 -90 -25 -50 -1 93 55 291 194 303
212 19 30 2 64 -32 64 -29 0 -224 -99 -372 -188 -56 -34 -105 -62 -109 -62 -3
0 -18 -8 -32 -19 -15 -10 -47 -29 -72 -43 -68 -38 -248 -146 -307 -184 -28
-19 -54 -34 -58 -34 -3 0 -32 -17 -63 -37 -73 -48 -75 -49 -174 -106 -92 -53
-90 -52 -172 -102 -32 -20 -61 -33 -64 -30 -7 7 -14 2 113 80 122 75 192 119
308 191 43 27 88 55 100 61 12 7 21 18 19 24 -1 6 2 7 8 4 6 -4 28 4 48 18 20
14 64 42 97 62 62 39 152 109 171 135 14 17 8 37 -16 50 -13 7 -33 4 -69 -12
-28 -11 -55 -17 -59 -13 -4 4 -2 10 5 12 16 6 270 165 347 218 33 22 78 57
100 77 34 31 39 40 30 55 -6 10 -22 19 -35 21 -38 5 -262 -116 -622 -335 -91
-55 -148 -84 -159 -81 -5 2 19 21 54 41 102 62 379 238 446 286 67 48 80 69
60 101 -17 27 -37 22 -154 -35 -187 -91 -666 -374 -657 -388 3 -5 1 -7 -5 -3
-12 7 -62 -13 -62 -26 0 -4 -4 -8 -10 -8 -5 0 -39 -18 -75 -40 -68 -42 -75
-45 -75 -32 0 7 11 15 140 98 41 27 77 52 78 56 2 5 8 8 13 8 17 0 137 92 149
115 11 20 10 26 -3 39 -21 21 -39 20 -87 -5 -23 -12 -43 -19 -46 -16 -3 3 72
57 168 120 169 112 258 183 258 205 0 16 -29 42 -48 42 -9 0 -44 -14 -77 -31z
m68 -1375 l47 -6 0 -164 0 -164 -132 0 c-143 0 -182 -11 -208 -61 -7 -12 -15
-85 -18 -165 l-5 -144 94 -2 c52 0 104 0 116 1 18 1 116 53 148 78 6 5 21 14
35 21 14 7 45 24 70 38 l45 25 -35 -31 c-19 -16 -40 -30 -46 -30 -7 0 -19 -6
-26 -13 -29 -28 -113 -77 -131 -77 -38 0 -9 -12 35 -14 l43 -3 -3 -39 c-1 -21
-10 -102 -20 -179 l-18 -140 -153 -3 -152 -3 2 -437 2 -437 -187 -3 -186 -2 0
440 0 440 -150 0 -150 0 0 185 0 185 150 0 150 0 0 153 c0 171 15 263 57 345
57 113 190 198 331 212 75 8 198 5 295 -6z"/>
</g>
</svg>
