<?xml version="1.0" standalone="no"?>
<!DOCTYPE svg PUBLIC "-//W3C//DTD SVG 20010904//EN"
 "http://www.w3.org/TR/2001/REC-SVG-20010904/DTD/svg10.dtd">
<svg version="1.0" xmlns="http://www.w3.org/2000/svg"
 width="640.000000pt" height="640.000000pt" viewBox="0 0 640.000000 640.000000"
 preserveAspectRatio="xMidYMid meet">

<g transform="translate(0.000000,640.000000) scale(0.100000,-0.100000)"
fill="#d82828" stroke="none">
<path d="M3483 5610 c-54 -24 -233 -122 -388 -213 -384 -224 -707 -416 -798
-474 -37 -24 -70 -43 -72 -43 -13 0 34 40 90 76 112 72 250 172 273 197 15 15
22 34 20 49 -2 18 -10 24 -38 26 -36 2 -166 -62 -320 -159 -181 -114 -222
-121 -67 -12 44 31 102 77 130 103 45 42 49 48 38 68 -6 12 -21 22 -33 22 -22
0 -111 -49 -219 -120 -31 -20 -76 -48 -100 -61 -54 -30 -60 -37 -54 -69 4 -20
-2 -30 -30 -49 -27 -18 -33 -27 -23 -33 9 -6 5 -7 -9 -3 -27 8 -31 -10 -5 -24
9 -6 12 -11 6 -11 -5 0 -15 5 -22 12 -8 8 -16 5 -31 -13 -11 -13 -20 -29 -21
-35 0 -7 -7 -15 -16 -18 -9 -4 -14 -9 -11 -13 4 -3 13 0 22 7 9 7 19 9 23 5 4
-4 3 -9 -3 -11 -6 -3 -9 -42 -7 -99 3 -76 6 -95 18 -95 8 0 12 4 9 10 -3 6 1
7 10 4 13 -5 12 -10 -8 -28 -26 -24 -41 -56 -27 -56 5 0 12 5 15 10 4 6 22 17
41 25 21 9 33 19 29 25 -4 7 -1 10 6 8 13 -2 108 47 204 107 43 27 86 47 91
43 1 -2 -36 -28 -82 -58 -156 -101 -189 -123 -202 -139 -8 -9 -10 -10 -6 -2 6
12 -51 -23 -66 -40 -3 -3 -13 -8 -23 -12 -10 -4 -16 -11 -13 -16 4 -5 3 -11
-1 -14 -5 -2 -3 -2 4 -1 6 2 14 -4 17 -12 10 -26 7 -154 -4 -154 -6 0 -10 -33
-10 -80 0 -47 4 -80 10 -80 7 0 10 -272 10 -795 0 -523 -3 -795 -10 -795 -5 0
-10 -4 -10 -10 0 -5 13 -7 31 -3 30 6 31 5 20 -16 -7 -11 -17 -21 -23 -21 -5
0 -8 -9 -5 -20 3 -11 2 -18 -3 -15 -4 3 -10 -2 -14 -10 -3 -8 -1 -15 4 -15 13
0 13 -47 0 -55 -14 -8 -13 -325 0 -325 6 0 2 -12 -7 -27 -17 -26 -17 -27 0
-20 14 5 17 1 17 -24 0 -20 -4 -28 -11 -23 -7 4 -10 1 -7 -7 3 -8 1 -22 -4
-31 -7 -14 -5 -18 9 -18 13 0 15 -2 5 -9 -10 -6 -13 -36 -11 -114 1 -59 6
-107 11 -107 4 0 8 -9 8 -20 0 -11 -6 -20 -12 -20 -9 0 -8 -3 2 -10 8 -5 11
-13 6 -17 -4 -4 -13 0 -20 9 -7 10 -16 15 -19 12 -6 -7 17 -34 28 -34 4 0 13
-7 21 -15 9 -8 12 -15 7 -15 -5 0 -15 6 -22 12 -10 11 -11 10 -6 -5 5 -12 2
-17 -9 -17 -9 0 -16 -4 -16 -10 0 -5 8 -7 18 -4 14 5 14 3 -2 -10 -23 -18 -14
-21 15 -5 11 5 16 15 13 21 -5 7 -2 8 6 3 7 -4 15 -2 20 4 5 9 10 8 19 -2 9
-12 3 -21 -39 -52 -50 -37 -65 -54 -32 -36 14 7 21 5 31 -11 7 -11 8 -17 3
-14 -10 6 -27 -21 -23 -37 1 -5 -9 -5 -21 -2 -17 5 -20 4 -13 -4 28 -29 111 0
286 101 109 63 107 45 -4 -32 -40 -27 -83 -63 -94 -79 -20 -26 -20 -30 -6 -51
12 -17 21 -20 42 -15 28 7 213 95 221 106 8 10 72 41 76 36 2 -2 -36 -34 -86
-70 -96 -71 -122 -105 -100 -132 7 -8 23 -15 35 -15 41 0 214 88 470 240 72
42 152 89 178 103 26 15 60 34 75 43 l27 16 -24 -21 c-13 -12 -76 -53 -140
-93 -202 -124 -311 -206 -311 -233 0 -23 38 -47 62 -40 23 8 99 40 131 57 39
20 12 -5 -77 -71 -52 -38 -97 -79 -101 -91 -7 -23 18 -60 41 -60 24 0 180 78
328 164 82 47 151 86 154 86 3 0 13 6 21 13 9 8 43 28 76 46 73 40 50 20 -89
-78 -58 -41 -113 -85 -122 -98 -14 -23 -14 -26 2 -44 24 -26 45 -24 115 12 34
17 63 28 65 26 2 -2 -26 -23 -63 -47 -100 -65 -220 -158 -227 -176 -3 -8 -1
-24 4 -35 16 -29 61 -24 140 16 114 58 109 51 -44 -58 -108 -76 -133 -105
-117 -136 8 -13 21 -21 39 -21 28 0 152 65 367 193 66 39 129 77 140 83 11 6
72 43 135 81 133 81 160 96 160 89 0 -3 -62 -46 -137 -95 -262 -170 -387 -261
-397 -287 -7 -19 19 -54 41 -54 22 0 191 92 445 243 98 59 91 38 -10 -28 -208
-136 -271 -196 -242 -230 29 -35 74 -16 353 149 75 44 145 86 155 91 53 31
426 253 472 282 79 49 271 163 445 263 125 72 150 91 150 110 0 12 -8 28 -17
34 -22 14 -46 2 -286 -141 -107 -63 -196 -113 -198 -110 -3 2 35 30 83 62 385
254 451 302 459 333 7 24 -10 52 -32 52 -22 0 -163 -73 -302 -156 -68 -41
-126 -73 -128 -71 -6 6 24 29 101 77 103 65 258 176 284 204 42 45 8 91 -51
68 -52 -19 -44 -6 18 34 222 140 368 245 378 271 7 18 -8 49 -28 56 -8 3 -50
-11 -93 -32 -77 -37 -331 -184 -387 -223 -16 -12 -27 -15 -24 -8 2 7 69 54
149 104 171 108 263 173 302 214 24 25 27 33 18 51 -14 25 -58 28 -101 6 -54
-28 -31 0 32 41 347 221 396 262 356 302 -17 17 -46 15 -97 -8 -71 -33 -60
-15 24 37 202 126 278 179 332 230 20 19 22 26 13 43 -17 32 -38 35 -93 12
-28 -12 -52 -20 -55 -18 -2 3 15 17 39 32 79 50 189 135 204 158 18 27 11 53
-17 62 -29 9 -95 -19 -236 -98 -68 -39 -125 -68 -128 -66 -2 3 51 41 119 86
174 115 210 155 175 190 -20 20 -49 14 -127 -23 -41 -20 -76 -33 -79 -30 -6 6
-10 3 55 44 62 38 133 105 133 124 0 8 -9 22 -19 31 -23 21 -37 18 -135 -30
-78 -39 -106 -44 -57 -11 69 46 150 117 156 137 10 32 -19 54 -62 47 -43 -7
-195 -84 -408 -207 -88 -51 -180 -104 -205 -118 -25 -14 -52 -31 -60 -37 -22
-18 -177 -100 -165 -88 6 6 72 52 147 102 143 94 166 122 137 157 -10 12 -23
14 -53 9 -22 -3 -38 -4 -35 -1 3 3 66 46 142 95 149 99 227 164 227 191 0 42
-62 51 -128 17 -81 -40 -241 -129 -369 -203 -80 -47 -148 -83 -150 -80 -2 2
40 33 94 69 147 97 176 130 141 165 -21 21 -46 13 -173 -53 -69 -36 -125 -63
-125 -60 0 2 44 34 98 69 127 85 174 129 170 157 -5 34 -32 46 -70 31 -17 -6
-33 -10 -36 -8 -2 2 43 35 100 73 57 37 125 89 152 115 47 45 48 48 34 70 -24
35 -74 28 -176 -23 -108 -55 -106 -54 -98 -41 3 6 34 29 68 53 99 67 125 98
108 128 -13 25 -49 27 -91 5 -67 -34 -45 -5 38 50 123 83 172 125 179 152 7
29 -11 54 -37 54 -33 0 -180 -78 -534 -284 -121 -70 -112 -55 21 34 122 82
194 143 194 165 0 6 -8 19 -18 29 -17 15 -23 15 -60 2 -44 -16 -157 -75 -253
-132 -69 -41 -100 -45 -38 -5 255 165 299 200 299 237 0 16 -8 28 -24 35 -19
9 -36 5 -93 -20 -39 -17 -103 -49 -143 -72 -39 -22 -74 -38 -76 -36 -3 3 31
30 75 61 97 67 118 95 99 125 -14 23 -39 27 -69 10 -11 -6 -25 -9 -31 -7 -6 2
35 35 91 72 112 76 201 151 201 170 0 17 -33 46 -51 46 -8 0 -48 -16 -88 -35
-41 -20 -76 -34 -78 -31 -2 2 24 21 59 42 144 87 268 186 268 214 0 9 -7 23
-15 30 -34 28 -120 -9 -410 -175 -176 -101 -234 -124 -124 -51 84 57 123 101
109 126 -24 44 -69 31 -270 -82 -74 -41 -153 -85 -175 -98 l-40 -22 27 23 c14
13 63 50 108 82 87 62 112 96 90 122 -7 8 -23 15 -36 15 -25 0 -124 -48 -243
-116 -93 -53 -66 -25 47 50 100 66 192 144 192 163 0 19 -30 43 -55 43 -30 0
-245 -111 -454 -234 -90 -53 -166 -94 -168 -92 -3 2 30 29 72 60 82 62 106 95
85 121 -7 8 -25 15 -41 15 -35 0 -204 -86 -392 -200 -76 -45 -140 -81 -142
-78 -3 2 43 36 102 74 143 92 258 178 266 198 10 25 -28 58 -58 50 -39 -10
-30 3 33 43 31 21 59 40 62 43 3 3 30 21 60 40 113 70 210 154 210 180 0 21
-20 40 -39 39 -9 0 -35 -9 -58 -19z m-1623 -772 c0 -4 -4 -8 -9 -8 -6 0 -12 4
-15 8 -3 5 1 9 9 9 8 0 15 -4 15 -9z m30 -232 c0 -2 -7 -7 -16 -10 -8 -3 -12
-2 -9 4 6 10 25 14 25 6z m-10 -76 c0 -5 -5 -10 -11 -10 -5 0 -7 5 -4 10 3 6
8 10 11 10 2 0 4 -4 4 -10z m24 -15 c-4 -8 -11 -15 -16 -15 -6 0 -5 6 2 15 7
8 14 15 16 15 2 0 1 -7 -2 -15z m-25 -31 c14 -12 -19 -1 -35 12 -18 14 -18 14
6 3 14 -6 27 -13 29 -15z m2048 -323 c126 -56 215 -151 252 -268 22 -68 22
-72 19 -753 l-3 -685 -24 -58 c-36 -87 -125 -178 -219 -224 l-76 -38 -675 -3
c-653 -2 -678 -2 -742 18 -122 37 -233 139 -281 258 l-23 57 -3 664 c-2 438 1
682 8 715 32 156 170 299 324 337 17 4 337 7 711 6 l680 -2 52 -24z m-2063
-2735 c-10 -8 -21 -12 -24 -10 -5 6 21 24 34 24 6 0 1 -6 -10 -14z"/>
<path d="M2496 3990 c-59 -23 -109 -69 -136 -125 -19 -40 -20 -63 -20 -703 0
-533 3 -669 13 -695 20 -48 63 -94 116 -125 l46 -27 660 0 660 0 41 22 c58 31
119 104 133 158 15 61 15 1269 0 1330 -14 54 -75 127 -133 158 -41 22 -42 22
-686 24 -617 2 -647 2 -694 -17z m1309 -154 c64 -27 93 -112 61 -175 -45 -85
-176 -88 -226 -5 -26 45 -25 88 2 131 35 57 98 76 163 49z m-542 -147 c188
-28 357 -170 422 -354 33 -94 35 -246 4 -338 -55 -164 -182 -292 -347 -349
-98 -33 -239 -32 -341 5 -217 77 -361 279 -361 507 0 250 177 471 420 524 82
18 114 19 203 5z"/>
<path d="M3110 3506 c-151 -33 -253 -140 -282 -294 -29 -156 73 -327 230 -384
68 -25 177 -23 249 4 86 32 171 120 202 211 47 137 11 279 -94 376 -87 78
-199 111 -305 87z"/>
<path d="M1801 2496 c-10 -12 -8 -13 8 -9 12 3 21 9 21 14 0 14 -16 11 -29 -5z"/>
<path d="M1685 2310 c-3 -6 1 -7 9 -4 18 7 21 14 7 14 -6 0 -13 -4 -16 -10z"/>
<path d="M1730 2269 c0 -5 5 -7 10 -4 6 3 10 8 10 11 0 2 -4 4 -10 4 -5 0 -10
-5 -10 -11z"/>
<path d="M1753 1615 c0 -8 4 -12 9 -9 5 3 6 10 3 15 -9 13 -12 11 -12 -6z"/>
<path d="M1780 1590 c-8 -5 -10 -10 -5 -10 6 0 17 5 25 10 8 5 11 10 5 10 -5
0 -17 -5 -25 -10z"/>
<path d="M1815 1470 c-3 -5 -2 -10 4 -10 5 0 13 5 16 10 3 6 2 10 -4 10 -5 0
-13 -4 -16 -10z"/>
</g>
</svg>
